<svg data-v-423bf9ae="" xmlns="http://www.w3.org/2000/svg" viewBox="0 0 308 90" class="iconLeftSlogan"><!----><!----><!----><g data-v-423bf9ae="" id="a8aa47a0-d952-4076-886d-687152572d57" fill="black" transform="matrix(3.7891715842726628,0,0,3.7891715842726628,117.51500081563378,-19.408978325672393)"><path d="M2.32 17.18L2.32 17.18Q1.61 17.21 1.02 17.00Q0.42 16.80 0.05 16.45Q-0.32 16.10-0.42 15.63Q-0.52 15.16-0.25 14.67L-0.25 14.67Q0.11 14.08 1.20 14.32L1.20 14.32Q2.03 14.49 2.35 14.50Q2.66 14.52 2.88 14.42L2.88 14.42Q3.91 14.08 4.03 13.69L4.03 13.69Q4.12 13.40 3.67 13.01L3.67 13.01Q3.49 12.84 3.26 12.67Q3.04 12.50 2.88 12.33L2.88 12.33Q2.18 11.82 1.79 11.14Q1.39 10.46 1.46 9.66Q1.53 8.86 1.72 8.34Q1.92 7.81 2.21 7.41L2.21 7.41Q2.73 6.69 3.56 6.24L3.56 6.24Q4.51 5.75 5.08 5.61L5.08 5.61Q6.22 5.36 7.38 5.57L7.38 5.57Q7.77 5.64 8.05 5.84Q8.33 6.03 8.61 6.24L8.61 6.24Q9.10 6.73 8.85 7.24L8.85 7.24Q8.75 7.46 8.54 7.60Q8.33 7.74 8.09 7.76L8.09 7.76Q8.12 8.13 7.95 8.32L7.95 8.32Q7.63 8.64 6.83 8.74L6.83 8.74Q5.68 8.65 5.28 8.86L5.28 8.86Q4.80 9.11 4.93 9.95L4.93 9.95Q4.96 10.14 5.16 10.33Q5.36 10.53 5.63 10.75Q5.91 10.98 6.21 11.26Q6.51 11.54 6.73 11.90L6.73 11.90Q7.52 13.19 6.61 14.91L6.61 14.91Q5.94 16.20 4.31 16.84L4.31 16.84Q3.47 17.18 2.32 17.18ZM15.32 14.87L15.32 14.87Q15.32 15.61 15.50 16.16L15.50 16.16Q15.50 16.60 15.29 16.79Q15.08 16.98 14.76 16.99Q14.45 17.00 14.10 16.86Q13.75 16.73 13.50 16.53Q13.26 16.34 13.19 16.22Q13.12 16.10 12.96 15.86L12.96 15.86Q12.73 14.76 12.74 14.42Q12.75 14.08 12.80 13.85L12.80 13.85Q12.10 14.21 11.83 14.48L11.83 14.48Q11.34 14.97 11.00 15.74L11.00 15.74Q10.89 16.35 10.82 16.39Q10.75 16.42 10.64 16.44Q10.53 16.45 10.40 16.53Q10.28 16.62 10.16 16.67Q10.05 16.73 9.94 16.79L9.94 16.79Q9.67 16.94 9.59 16.94L9.59 16.94Q8.79 17.19 8.06 16.72L8.06 16.72Q7.76 16.51 7.59 16.18Q7.42 15.85 7.50 15.47L7.50 15.47Q8.11 12.88 9.16 10.19L9.16 10.19Q9.80 8.55 10.39 7.60L10.39 7.60Q10.53 7.38 10.67 7.13L10.67 7.13Q10.96 6.62 11.07 6.44L11.07 6.44Q10.93 6.08 11.08 5.80Q11.23 5.53 11.53 5.37Q11.83 5.21 12.22 5.15Q12.61 5.10 12.96 5.14L12.96 5.14Q13.80 5.26 13.86 5.80L13.86 5.80Q13.78 6.05 13.63 6.40Q13.48 6.75 13.34 7.10Q13.19 7.46 13.05 7.77Q12.92 8.08 12.86 8.22Q12.80 8.37 12.68 8.73Q12.56 9.09 12.43 9.50Q12.29 9.91 12.18 10.26L12.18 10.26L12.01 10.75Q11.96 10.95 11.83 11.35Q11.70 11.75 11.56 12.33L11.56 12.33Q11.75 12.19 11.87 12.00Q11.98 11.82 12.21 11.58Q12.45 11.34 12.82 11.11Q13.19 10.88 13.61 10.81L13.61 10.81Q14.52 10.65 15.26 11.40L15.26 11.40Q15.82 11.96 15.61 13.08L15.61 13.08Q15.53 13.54 15.41 14.01Q15.29 14.48 15.32 14.87ZM17.96 10.39L17.96 10.39Q18.26 10.18 18.69 10.29L18.69 10.29Q18.77 10.30 18.86 10.30L18.86 10.30Q19.17 9.67 19.92 9.65L19.92 9.65Q20.12 9.63 20.47 9.58Q20.82 9.52 21.32 9.60Q21.81 9.69 22.19 9.90L22.19 9.90Q23.02 10.35 23.18 11.19L23.18 11.19Q23.52 12.42 23.09 13.87L23.09 13.87Q22.62 15.48 21.52 16.45L21.52 16.45Q21.01 16.90 20.45 17.02Q19.89 17.14 19.45 17.15Q19.00 17.16 18.63 17.16Q18.26 17.15 17.91 17.08L17.91 17.08Q17.15 16.93 16.66 16.37L16.66 16.37Q16.09 15.74 16.17 14.41L16.17 14.41Q16.23 13.23 16.77 12.03Q17.30 10.84 17.96 10.39ZM20.43 13.20L20.43 13.20Q20.08 13.31 19.77 13.30L19.77 13.30Q19.61 13.45 19.50 13.63Q19.38 13.80 19.18 13.95Q18.98 14.10 18.98 14.07L18.98 14.07Q18.75 14.41 18.59 14.76Q18.44 15.12 18.59 15.48L18.59 15.48Q19.15 15.54 19.42 15.46Q19.68 15.37 19.92 15.13Q20.15 14.90 20.27 14.57L20.27 14.57Q20.52 13.97 20.43 13.20ZM26.45 10.57L26.71 10.64Q27.41 9.59 28.66 9.38L28.66 9.38Q29.06 9.31 29.66 9.28Q30.25 9.25 30.68 9.55Q31.11 9.84 31.32 10.30L31.32 10.30Q31.68 11.13 31.43 12.33L31.43 12.33Q31.29 12.99 31.09 13.78Q30.90 14.57 30.51 15.34Q30.11 16.11 29.48 16.79Q28.85 17.46 27.85 17.85L27.85 17.85Q27.24 18.09 26.79 18.02Q26.33 17.96 26.11 17.84Q25.89 17.71 25.80 17.47L25.80 17.47Q25.52 18.27 25.28 19.09Q25.03 19.91 24.63 20.65L24.63 20.65Q24.35 20.83 23.94 20.92Q23.53 21.01 23.14 20.88Q22.75 20.75 22.57 20.41Q22.40 20.06 22.40 19.66L22.40 19.66Q22.40 19.11 22.67 18.33L22.67 18.33Q23.06 17.16 23.30 16.53Q23.55 15.90 23.62 15.71Q23.69 15.53 23.76 15.32L23.76 15.32Q24.07 14.50 24.21 13.99Q24.36 13.48 24.49 13.10L24.49 13.10L24.49 13.09Q24.63 12.47 24.93 11.78Q25.23 11.09 25.34 10.93L25.34 10.93Q25.58 10.70 25.83 10.64Q26.08 10.58 26.40 10.57L26.40 10.57L26.45 10.57ZM27.78 12.98L27.78 12.98Q27.61 13.27 27.22 13.52L27.22 13.52L27.09 13.82Q26.95 14.18 26.82 14.56Q26.70 14.94 26.54 15.30L26.54 15.30Q26.68 15.44 26.75 15.57L26.75 15.57Q27.54 14.88 28.18 13.76L28.18 13.76Q28.43 13.30 28.51 12.84Q28.59 12.38 28.55 12.25Q28.50 12.12 28.41 12.12Q28.32 12.12 28.23 12.17Q28.14 12.22 28.09 12.27Q28.04 12.32 28.10 12.28L28.10 12.28Q27.94 12.46 27.87 12.59Q27.80 12.73 27.78 12.98ZM39.31 6.87L39.31 6.87Q39.79 7.13 39.91 7.62L39.91 7.62Q39.63 9.18 39.41 10.73Q39.19 12.28 38.98 13.32Q38.77 14.36 38.69 14.88Q38.61 15.40 38.51 15.92L38.51 15.92L38.43 16.21Q38.40 16.37 38.37 16.50Q38.35 16.63 38.32 16.79L38.32 16.79Q37.93 17.23 37.25 17.23L37.25 17.23Q36.54 17.23 36.12 16.87L36.12 16.87Q35.87 16.67 36.04 16.04L36.04 16.04Q36.11 15.79 36.13 15.39Q36.15 14.99 36.18 14.73L36.18 14.73L36.18 14.70Q35.76 14.85 35.42 15.10Q35.08 15.34 35 15.41Q34.92 15.47 34.78 15.50Q34.64 15.54 34.52 15.55L34.52 15.55Q34.26 15.57 34.16 15.64L34.16 15.64Q33.35 17.09 32.70 17.26L32.70 17.26Q32.30 17.39 31.89 17.32Q31.49 17.26 31.25 16.84L31.25 16.84Q30.80 16.42 31.47 14.55L31.47 14.55Q31.84 13.55 32.52 12.16Q33.19 10.77 33.82 9.73L33.82 9.73Q35.18 7.50 36.81 5.98L36.81 5.98Q37.07 5.87 37.38 5.72Q37.69 5.57 37.99 5.56Q38.29 5.54 38.61 5.63Q38.93 5.71 39.16 5.88L39.16 5.88Q39.68 6.27 39.31 6.87ZM36.85 9.76L36.32 10.56Q36.02 11.40 35.73 12.10Q35.43 12.81 35.22 13.34L35.22 13.34L36.33 13.30Q36.44 12.40 36.58 11.52Q36.72 10.64 36.85 9.76L36.85 9.76ZM35.94 13.36L35.94 13.36Q36.13 13.36 36.33 13.33L36.33 13.33L36.33 13.31Q36.15 13.33 35.99 13.34Q35.84 13.36 35.94 13.36ZM41.41 10.28L41.41 10.28Q41.44 10.01 41.75 9.84Q42.06 9.67 42.43 9.67Q42.81 9.67 43.17 9.85Q43.53 10.02 43.65 10.44L43.65 10.44Q44.84 9.41 45.82 9.65L45.82 9.65Q46.16 9.72 46.40 10.04L46.40 10.04Q47.11 9.35 47.98 9.14L47.98 9.14Q49.07 9.10 49.55 9.65L49.55 9.65Q49.62 9.72 49.69 9.80L49.69 9.80Q49.88 10.01 49.91 10.08L49.91 10.08Q50.16 10.47 50.05 11.89L50.05 11.89Q49.90 13.72 49.35 15.57L49.35 15.57Q49.06 16.51 48.82 16.53L48.82 16.53Q48.68 16.56 48.56 16.53Q48.44 16.51 48.35 16.50Q48.26 16.49 48.24 16.66L48.24 16.66Q47.96 17.02 47.39 17.02L47.39 17.02Q46.83 17.02 46.44 16.67L46.44 16.67Q46.00 16.31 46.14 15.81Q46.27 15.32 46.44 14.79Q46.61 14.27 46.80 13.71L46.80 13.71Q47.14 12.73 47.54 11.66L47.54 11.66Q47.25 12.00 46.75 12.93Q46.24 13.86 46.12 14.04L46.12 14.04Q45.88 14.52 45.72 14.79Q45.57 15.06 45.31 15.22Q45.05 15.39 44.84 15.43Q44.62 15.47 44.42 15.44L44.42 15.44Q43.96 15.37 43.76 15.05L43.76 15.05Q43.72 14.94 43.68 14.83Q43.64 14.71 43.61 14.52L43.61 14.52Q43.57 14.08 43.72 13.10L43.72 13.10L43.69 13.15Q43.86 12.98 43.81 13.06L43.81 13.06Q43.25 13.86 43.13 14.08Q43.02 14.31 42.90 14.58Q42.77 14.85 42.60 15.21Q42.43 15.57 42.34 15.85Q42.24 16.13 42.10 16.39L42.10 16.39Q41.47 17.49 39.89 17.28L39.89 17.28Q39.55 17.23 39.31 17.11Q39.07 17.00 39.12 16.76L39.12 16.76Q39.23 16.20 39.63 14.90L39.63 14.90Q40.43 12.32 40.59 11.58L40.59 11.58Q40.68 11.33 40.76 11.06Q40.84 10.79 40.92 10.60L40.92 10.60Q41.09 10.14 41.41 10.28ZM46.27 13.73L46.27 13.73L46.27 13.76Q46.30 13.71 46.27 13.73Z"></path></g><!----><g data-v-423bf9ae="" id="7d574176-cae1-4a80-b95e-9d2296831fd3" transform="matrix(2.994410458179972,0,0,2.994410458179972,0.08943266912044834,-1.9385669710569857)" stroke="none" fill="black"><path d="M17.572 23.933l4.106 7.095L32 13.189h-8.981V7.582L11.51.972 0 7.582v13.222l11.51 6.611 6.062-3.482zm10.96-8.744l-6.855 11.846-6.855-11.846h13.71z"></path></g><!----><g data-v-423bf9ae="" id="1e32b5c1-a79e-492d-aa83-f5082ca715ff" fill="black" transform="matrix(0.7024461215450203,0,0,0.7024461215450203,115.50503126315941,58.52486200952083)"><path d="M1.75 4.65C1.75 4.03 2.11 3.08 4.21 3.08C5.91 3.08 6.69 3.82 6.80 4.75L7.88 4.75C7.80 3.36 6.68 2.10 4.21 2.10C1.89 2.10 0.73 3.15 0.73 4.66C0.73 7.84 7.07 6.69 7.07 8.96C7.07 10.05 6.09 10.60 4.52 10.60C2.91 10.60 1.61 10.05 1.54 8.71L0.45 8.71C0.59 10.37 1.71 11.59 4.45 11.59C6.73 11.59 8.12 10.64 8.12 8.92C8.12 5.68 1.75 6.80 1.75 4.65ZM23.18 2.21L23.18 6.33L17.79 6.33L17.79 2.21L16.74 2.21L16.74 11.48L17.79 11.48L17.79 7.35L23.18 7.35L23.18 11.48L24.23 11.48L24.23 2.21ZM37.62 2.10C34.80 2.10 32.91 4.21 32.91 6.85C32.91 9.48 34.80 11.59 37.62 11.59C40.43 11.59 42.32 9.48 42.32 6.85C42.32 4.21 40.43 2.10 37.62 2.10ZM37.62 10.57C35.36 10.57 33.96 8.93 33.96 6.85C33.96 4.76 35.36 3.12 37.62 3.12C39.87 3.12 41.27 4.76 41.27 6.85C41.27 8.93 39.87 10.57 37.62 10.57ZM52.05 8.18L55.17 8.18C57.15 8.18 58.37 7.03 58.37 5.19C58.37 3.37 57.15 2.21 55.17 2.21L51.00 2.21L51.00 11.48L52.05 11.48ZM55.10 3.21C56.56 3.21 57.32 3.96 57.32 5.19C57.32 6.44 56.56 7.20 55.10 7.20L52.05 7.20L52.05 3.21ZM83.47 3.22L83.47 2.21L76.78 2.21L76.78 11.48L77.83 11.48L77.83 7.46L82.85 7.46L82.85 6.44L77.83 6.44L77.83 3.22ZM96.05 2.10C93.24 2.10 91.35 4.21 91.35 6.85C91.35 9.48 93.24 11.59 96.05 11.59C98.87 11.59 100.76 9.48 100.76 6.85C100.76 4.21 98.87 2.10 96.05 2.10ZM96.05 10.57C93.80 10.57 92.40 8.93 92.40 6.85C92.40 4.76 93.80 3.12 96.05 3.12C98.31 3.12 99.71 4.76 99.71 6.85C99.71 8.93 98.31 10.57 96.05 10.57ZM110.49 7.92L113.71 7.92L115.95 11.48L117.19 11.48L114.76 7.74C115.79 7.50 117.00 6.90 117.00 5.11C117.00 3.35 115.78 2.21 113.88 2.21L109.44 2.21L109.44 11.48L110.49 11.48ZM110.49 3.21L113.75 3.21C115.07 3.21 115.95 3.93 115.95 5.11C115.95 6.55 114.69 6.93 113.69 6.93L110.49 6.93ZM135.79 2.21L135.79 11.48L141.89 11.48L141.89 10.47L136.84 10.47L136.84 2.21ZM157.07 3.22L157.07 2.21L150.25 2.21L150.25 11.48L157.07 11.48L157.07 10.47L151.30 10.47L151.30 7.35L156.45 7.35L156.45 6.33L151.30 6.33L151.30 3.22ZM172.23 2.21L169.02 10.29L165.82 2.21L164.67 2.21L168.42 11.48L169.62 11.48L173.38 2.21ZM188.37 3.22L188.37 2.21L181.55 2.21L181.55 11.48L188.37 11.48L188.37 10.47L182.60 10.47L182.60 7.35L187.75 7.35L187.75 6.33L182.60 6.33L182.60 3.22ZM197.06 2.21L197.06 11.48L203.17 11.48L203.17 10.47L198.11 10.47L198.11 2.21ZM212.14 4.65C212.14 4.03 212.51 3.08 214.61 3.08C216.30 3.08 217.08 3.82 217.20 4.75L218.27 4.75C218.19 3.36 217.07 2.10 214.61 2.10C212.28 2.10 211.12 3.15 211.12 4.66C211.12 7.84 217.46 6.69 217.46 8.96C217.46 10.05 216.48 10.60 214.91 10.60C213.30 10.60 212.00 10.05 211.93 8.71L210.84 8.71C210.98 10.37 212.10 11.59 214.84 11.59C217.13 11.59 218.51 10.64 218.51 8.92C218.51 5.68 212.14 6.80 212.14 4.65Z"></path></g></svg>